<svg xmlns="http://www.w3.org/2000/svg" width="512" height="512" viewBox="0 0 512 512"><rect width="512" height="512" rx="116" fill="#ffffff"/><rect x="96" y="82" width="250" height="330" rx="34" fill="#09284a"/><path d="M150 128h145c28 0 51 23 51 51v177c0 17-14 31-31 31H150c-22 0-40-18-40-40V168c0-22 18-40 40-40z" fill="#0e365d"/><path d="M145 205l55-48v204l-55 20z" fill="#1d5fa7"/><path d="M200 183l55-40v178l-55 40z" fill="#2e78c7"/><rect x="256" y="225" width="31" height="102" rx="9" fill="#36c96f"/><path d="M86 370c65 74 182 86 278 29" fill="none" stroke="#20bd63" stroke-width="28" stroke-linecap="round"/><text x="115" y="356" font-family="Arial,sans-serif" font-size="54" font-weight="800" fill="#fff">Rs</text></svg>